<svg width="26" height="28" viewBox="0 0 26 28" fill="none" xmlns="http://www.w3.org/2000/svg">
<path d="M12.3169 27.0052C12.7089 27.2146 13.2009 27.2132 13.5929 27.0039C24.2756 21.2652 25.0342 10.0532 25.0249 6.86523C25.0239 6.609 24.9482 6.35863 24.807 6.14479C24.6659 5.93094 24.4654 5.76289 24.2302 5.66123L13.4969 0.906565C13.3261 0.831271 13.1414 0.792496 12.9547 0.792726C12.7681 0.792955 12.5835 0.832184 12.4129 0.907898L1.75422 5.66257C1.52248 5.76428 1.32487 5.93047 1.18492 6.14133C1.04497 6.3522 0.968595 6.59885 0.964883 6.8519C0.919549 10.0239 1.55822 21.2599 12.3169 27.0052ZM8.56488 11.7239L11.6222 14.7812L17.3462 9.05723L19.2316 10.9426L11.6222 18.5519L6.67955 13.6092L8.56488 11.7239V11.7239Z" fill="#2E68FF"/>
</svg>
