<svg width="27" height="26" viewBox="0 0 27 26" fill="none" xmlns="http://www.w3.org/2000/svg">
<path fill-rule="evenodd" clip-rule="evenodd" d="M20 24.0002L19.1373 25.0175L19.136 25.0149L19.1307 25.0122L19.1173 24.9989L19.0653 24.9549L18.8827 24.7935C17.9714 23.9765 17.1148 23.1004 16.3187 22.1709C15.6187 21.3482 14.8893 20.3802 14.3307 19.3589C13.78 18.3549 13.3333 17.1895 13.3333 16.0002C13.3333 13.9375 14.0507 12.2335 15.32 11.0522C16.5747 9.8842 18.2533 9.33353 20 9.33353C21.7467 9.33353 23.4253 9.8842 24.68 11.0522C25.9493 12.2335 26.6667 13.9375 26.6667 16.0002C26.6667 17.1895 26.22 18.3549 25.6693 19.3602C25.1093 20.3802 24.3827 21.3482 23.6827 22.1709C22.833 23.1621 21.9147 24.0924 20.9347 24.9549L20.884 24.9989L20.8693 25.0122L20.864 25.0149V25.0162H20.8627L20 24.0002ZM20 24.0002L20.8613 25.0175C20.6206 25.2213 20.3154 25.3331 20 25.3331C19.6846 25.3331 19.3794 25.2213 19.1387 25.0175L20 24.0002ZM20 17.3335C20.3536 17.3335 20.6928 17.1931 20.9428 16.943C21.1929 16.693 21.3333 16.3538 21.3333 16.0002C21.3333 15.6466 21.1929 15.3074 20.9428 15.0574C20.6928 14.8073 20.3536 14.6669 20 14.6669C19.6464 14.6669 19.3072 14.8073 19.0572 15.0574C18.8071 15.3074 18.6667 15.6466 18.6667 16.0002C18.6667 16.3538 18.8071 16.693 19.0572 16.943C19.3072 17.1931 19.6464 17.3335 20 17.3335Z" fill="#2E68FF"/>
<path fill-rule="evenodd" clip-rule="evenodd" d="M26.6667 1.33353C26.6667 1.09214 26.6012 0.855271 26.4772 0.648188C26.3531 0.441105 26.1752 0.271581 25.9624 0.157701C25.7495 0.0438213 25.5098 -0.010141 25.2686 0.00157047C25.0275 0.0132819 24.7941 0.0902279 24.5933 0.2242L17.3333 5.0642L10.0733 0.2242C9.85423 0.0780144 9.59673 8.15062e-08 9.33333 8.15062e-08C9.06994 8.15062e-08 8.81244 0.0780144 8.59333 0.2242L0.593333 5.55753C0.410778 5.67933 0.26111 5.84431 0.157607 6.03782C0.0541039 6.23134 -3.28257e-05 6.44741 1.49412e-08 6.66687V22.6669C-3.61117e-05 22.9083 0.06546 23.1451 0.189501 23.3522C0.313542 23.5593 0.491473 23.7288 0.704313 23.8427C0.917153 23.9566 1.15692 24.0105 1.39802 23.9988C1.63913 23.9871 1.87253 23.9102 2.07333 23.7762L9.33333 18.9362L10.3333 19.6029C9.99467 18.6602 9.77733 17.6695 9.77733 16.6669C9.77733 13.5735 10.8773 11.0162 12.824 9.2442C14.748 7.49353 17.3213 6.66687 20 6.66687C22.4493 6.66687 24.8107 7.35753 26.6667 8.81353V1.33353Z" fill="#2E68FF"/>
</svg>
