<svg width="27" height="26" viewBox="0 0 27 26" fill="none" xmlns="http://www.w3.org/2000/svg">
<path d="M25.3801 0H15.4362C14.7533 0 13.7971 0.396099 13.3148 0.878378L0.986023 13.2072C0.753555 13.4407 0.623047 13.7568 0.623047 14.0864C0.623047 14.4159 0.753555 14.732 0.986023 14.9656L11.6575 25.637C11.891 25.8695 12.2072 26 12.5367 26C12.8662 26 13.1823 25.8695 13.4159 25.637L25.7447 13.3082C26.2286 12.8243 26.623 11.8697 26.623 11.1869V1.24299C26.6217 0.91373 26.4904 0.598331 26.2575 0.365509C26.0247 0.132687 25.7093 0.00130919 25.3801 0V0ZM19.1651 9.9439C18.8386 9.94379 18.5152 9.87936 18.2135 9.75428C17.9119 9.62921 17.6378 9.44594 17.4069 9.21494C17.1761 8.98395 16.993 8.70974 16.8681 8.40799C16.7433 8.10623 16.679 7.78284 16.6791 7.45627C16.6793 7.12969 16.7437 6.80634 16.8688 6.50467C16.9938 6.203 17.1771 5.92892 17.4081 5.69807C17.6391 5.46723 17.9133 5.28414 18.2151 5.15927C18.5168 5.0344 18.8402 4.97018 19.1668 4.97029C19.8263 4.97051 20.4588 5.23272 20.925 5.69925C21.3912 6.16577 21.653 6.79838 21.6528 7.45792C21.6525 8.11746 21.3903 8.7499 20.9238 9.21612C20.4573 9.68233 19.8247 9.94412 19.1651 9.9439V9.9439Z" fill="#2E68FF"/>
</svg>
