<svg width="26" height="21" viewBox="0 0 26 21" fill="none" xmlns="http://www.w3.org/2000/svg">
<path d="M2.0394 15.2587C2.13283 15.604 2.49033 15.8112 2.83564 15.7178L11.6269 13.3616C11.9722 13.2681 12.1794 12.9106 12.0859 12.5653L10.0669 5.02937C9.97345 4.68406 9.61595 4.47687 9.27064 4.57031L6.13439 5.41531L7.14189 9.18124L4.63127 9.85155L3.62377 6.08562L0.483459 6.92656C0.138147 7.01999 -0.0690402 7.37749 0.0243972 7.72281L2.0394 15.2587ZM15.6 0C14.8809 0 14.3 0.580937 14.3 1.3V14.4462L0.23971 18.2812C0.0650222 18.33 -0.0365403 18.5087 0.0122097 18.6794L0.524084 20.5603C0.572834 20.735 0.751584 20.8365 0.922209 20.7878L16.9163 16.4247C17.0138 18.854 18.9963 20.8 21.45 20.8C23.9647 20.8 26 18.7647 26 16.25V0H15.6ZM21.45 18.2C20.3734 18.2 19.5 17.3265 19.5 16.25C19.5 15.1734 20.3734 14.3 21.45 14.3C22.5266 14.3 23.4 15.1734 23.4 16.25C23.4 17.3265 22.5266 18.2 21.45 18.2Z" fill="#2E68FF"/>
</svg>
