<svg width="26" height="26" viewBox="0 0 26 26" fill="none" xmlns="http://www.w3.org/2000/svg">
<path d="M5.63828 2.43247L17.9158 7.69376L13 9.79975L0.793 4.56819C1.06786 4.28776 1.404 4.06119 1.78657 3.91447L5.63828 2.43247ZM8.12314 1.4779L11.0017 0.371048C12.2886 -0.123683 13.7132 -0.123683 15.0001 0.371048L24.2153 3.91447C24.596 4.06304 24.9321 4.2859 25.207 4.56819L20.2744 6.68161L8.12314 1.4779V1.4779ZM25.9888 6.25447L13.9286 11.4229V25.2586C14.2947 25.1969 14.6536 25.0986 15.0001 24.9652L24.2153 21.4199C24.7406 21.2176 25.1924 20.8609 25.511 20.3968C25.8296 19.9326 26.0001 19.3829 26 18.8199V6.51447C26.0003 6.42763 25.996 6.34084 25.987 6.25447H25.9888ZM12.0714 25.2586V11.4229L0.0129999 6.25447C0.00463072 6.34089 0.000292747 6.42765 0 6.51447V18.8199C7.45503e-05 19.3831 0.170843 19.933 0.489786 20.3972C0.808728 20.8613 1.26087 21.2179 1.78657 21.4199L10.9998 24.9652C11.349 25.0989 11.7074 25.1973 12.0714 25.2586V25.2586Z" fill="#2E68FF"/>
</svg>
