<svg width="31" height="31" viewBox="0 0 31 31" fill="none" xmlns="http://www.w3.org/2000/svg">
<path d="M30.3613 23.1855L23.5 16.3242C22.1465 14.9707 20.125 14.707 18.4961 15.5098L12.25 9.26367V5.625L4.75 0L1 3.75L6.625 11.25H10.2637L16.5098 17.4961C15.7129 19.125 15.9707 21.1465 17.3242 22.5L24.1855 29.3613C25.041 30.2168 26.4238 30.2168 27.2734 29.3613L30.3613 26.2734C31.2109 25.418 31.2109 24.0352 30.3613 23.1855ZM20.4355 13.1836C22.0938 13.1836 23.6523 13.8281 24.8242 15L25.9609 16.1367C26.8867 15.7324 27.7656 15.1699 28.5273 14.4082C30.7012 12.2344 31.4395 9.17578 30.748 6.39844C30.6191 5.87109 29.957 5.68945 29.5703 6.07617L25.2109 10.4355L21.2324 9.77344L20.5703 5.79492L24.9297 1.43555C25.3164 1.04883 25.1289 0.386719 24.5957 0.251953C21.8184 -0.433594 18.7598 0.304688 16.5918 2.47266C14.9219 4.14258 14.1367 6.3457 14.1777 8.54297L18.9883 13.3535C19.4629 13.2422 19.9551 13.1836 20.4355 13.1836ZM14.3477 17.9883L11.0254 14.666L2.0957 23.6016C0.630859 25.0664 0.630859 27.4395 2.0957 28.9043C3.56055 30.3691 5.93359 30.3691 7.39844 28.9043L14.6406 21.6621C14.1953 20.4961 14.0605 19.2246 14.3477 17.9883ZM4.75 27.6562C3.97656 27.6562 3.34375 27.0234 3.34375 26.25C3.34375 25.4707 3.9707 24.8438 4.75 24.8438C5.5293 24.8438 6.15625 25.4707 6.15625 26.25C6.15625 27.0234 5.5293 27.6562 4.75 27.6562Z" fill="#2E68FF"/>
</svg>
