<svg width="31" height="31" viewBox="0 0 31 31" fill="none" xmlns="http://www.w3.org/2000/svg">
<path d="M15.5 0.5C7.3685 0.5 0.5 7.3685 0.5 15.5C0.5 23.6315 7.3685 30.5 15.5 30.5C23.6315 30.5 30.5 23.6315 30.5 15.5C30.5 7.3685 23.6315 0.5 15.5 0.5ZM15.5 8C18.0905 8 20 9.908 20 12.5C20 15.092 18.0905 17 15.5 17C12.911 17 11 15.092 11 12.5C11 9.908 12.911 8 15.5 8ZM7.841 22.658C9.1865 20.678 11.4305 19.358 14 19.358H17C19.571 19.358 21.8135 20.678 23.159 22.658C21.242 24.71 18.5225 26 15.5 26C12.4775 26 9.758 24.71 7.841 22.658Z" fill="#2E68FF"/>
</svg>
