<svg width="30" height="30" viewBox="0 0 30 30" fill="none" xmlns="http://www.w3.org/2000/svg">
<path d="M15 30C14.7963 30 14.3228 29.4731 13.5794 28.4194C12.836 27.3656 12.4644 26.6953 12.4644 26.4086C12.4644 25.9498 12.7826 25.5627 13.419 25.2473C14.0555 24.9319 14.5825 24.7742 15 24.7742C15.4175 24.7742 15.9445 24.9319 16.581 25.2473C17.2174 25.5627 17.5356 25.9498 17.5356 26.4086C17.5356 26.6953 17.164 27.3656 16.4206 28.4194C15.6772 29.4731 15.2037 30 15 30ZM19.1242 24.172C19.1039 24.172 18.9002 23.9928 18.5132 23.6344C18.1263 23.276 17.6095 22.9176 16.9628 22.5591C16.3162 22.2007 15.6619 22.0215 15 22.0215C14.3381 22.0215 13.6838 22.2007 13.0372 22.5591C12.3905 22.9176 11.8763 23.276 11.4944 23.6344C11.1125 23.9928 10.9063 24.172 10.8758 24.172C10.6925 24.172 10.2164 23.6344 9.44756 22.5591C8.67872 21.4839 8.2943 20.8172 8.2943 20.5591C8.2943 20.3728 8.34521 20.2079 8.44705 20.0645C9.24134 18.9606 10.2393 18.0932 11.4409 17.4624C12.6426 16.8315 13.8289 16.5161 15 16.5161C16.1711 16.5161 17.3574 16.8315 18.5591 17.4624C19.7607 18.0932 20.7587 18.9606 21.553 20.0645C21.6548 20.2079 21.7057 20.3728 21.7057 20.5591C21.7057 20.8172 21.3213 21.4839 20.5524 22.5591C19.7836 23.6344 19.3075 24.172 19.1242 24.172ZM23.2943 18.3226C23.1823 18.3226 23.0652 18.2652 22.943 18.1505C21.558 16.6452 20.275 15.5376 19.0937 14.828C17.9124 14.1183 16.5479 13.7634 15 13.7634C14.1344 13.7634 13.2663 13.9211 12.3956 14.2366C11.5249 14.552 10.7663 14.9319 10.1197 15.3763C9.47301 15.8208 8.89511 16.2652 8.38595 16.7097C7.87678 17.1541 7.47454 17.534 7.17923 17.8495C6.88391 18.1649 6.72607 18.3226 6.7057 18.3226C6.53259 18.3226 6.06416 17.7849 5.30041 16.7097C4.53666 15.6344 4.15479 14.9677 4.15479 14.7097C4.15479 14.5376 4.2057 14.3799 4.30754 14.2366C5.65173 12.3441 7.28106 10.8746 9.19552 9.82796C11.11 8.78136 13.0448 8.25806 15 8.25806C16.9552 8.25806 18.89 8.78136 20.8045 9.82796C22.7189 10.8746 24.3483 12.3441 25.6925 14.2366C25.7943 14.3799 25.8452 14.5376 25.8452 14.7097C25.8452 14.9677 25.4633 15.6344 24.6996 16.7097C23.9358 17.7849 23.4674 18.3226 23.2943 18.3226ZM27.4338 12.4946C27.3218 12.4946 27.2098 12.4301 27.0978 12.3011C25.275 10.0502 23.3834 8.35484 21.4231 7.21505C19.4628 6.07527 17.3218 5.50538 15 5.50538C12.6782 5.50538 10.5372 6.07527 8.57688 7.21505C6.6166 8.35484 4.72505 10.0502 2.90224 12.3011C2.79022 12.4301 2.67821 12.4946 2.56619 12.4946C2.39308 12.4946 1.9221 11.957 1.15326 10.8817C0.38442 9.80645 0 9.13978 0 8.88172C0 8.69534 0.0509165 8.53047 0.152749 8.3871C2.05703 5.72043 4.32281 3.65591 6.9501 2.19355C9.57739 0.731183 12.2607 0 15 0C17.7393 0 20.4226 0.731183 23.0499 2.19355C25.6772 3.65591 27.943 5.72043 29.8473 8.3871C29.9491 8.53047 30 8.69534 30 8.88172C30 9.13978 29.6156 9.80645 28.8467 10.8817C28.0779 11.957 27.6069 12.4946 27.4338 12.4946Z" fill="#2E68FF"/>
</svg>
