<svg width="30" height="38" viewBox="0 0 30 38" fill="none" xmlns="http://www.w3.org/2000/svg">
<path d="M17.1429 23.2222V16.8889C17.1429 16.329 16.9171 15.792 16.5152 15.3961C16.1134 15.0002 15.5683 14.7778 15 14.7778C14.4317 14.7778 13.8866 15.0002 13.4847 15.3961C13.0829 15.792 12.8571 16.329 12.8571 16.8889V25.3333C12.8571 25.8932 13.0829 26.4302 13.4847 26.8261C13.8866 27.222 14.4317 27.4444 15 27.4444H21.4287C21.997 27.4444 22.542 27.222 22.9439 26.8261C23.3458 26.4302 23.5716 25.8932 23.5716 25.3333C23.5716 24.7734 23.3458 24.2365 22.9439 23.8406C22.542 23.4446 21.997 23.2222 21.4287 23.2222H17.1429ZM15 38C11.59 38 8.31971 36.6655 5.90849 34.29C3.49728 31.9146 2.14267 28.6927 2.14267 25.3333C2.14267 21.9739 3.49728 18.7521 5.90849 16.3766C8.31971 14.0012 11.59 12.6667 15 12.6667C18.41 12.6667 21.6803 14.0012 24.0915 16.3766C26.5027 18.7521 27.8573 21.9739 27.8573 25.3333C27.8573 28.6927 26.5027 31.9146 24.0915 34.29C21.6803 36.6655 18.41 38 15 38ZM21.2744 9.61189C19.2759 8.83809 17.1473 8.44204 15 8.44445C12.8527 8.44204 10.7241 8.83809 8.72562 9.61189C7.78845 8.97032 7.08373 8.05068 6.71415 6.98698C6.34457 5.92327 6.32944 4.77109 6.67097 3.69832C7.0125 2.62555 7.69283 1.68826 8.61284 1.02303C9.53285 0.357789 10.6444 -0.000628489 11.7857 8.27307e-07H18.2143C19.3555 -0.000628489 20.4671 0.357789 21.3872 1.02303C22.3072 1.68826 22.9875 2.62555 23.329 3.69832C23.6706 4.77109 23.6554 5.92327 23.2858 6.98698C22.9163 8.05068 22.2115 8.97032 21.2744 9.61189ZM11.7857 4.22222C11.5015 4.22222 11.229 4.33343 11.028 4.53139C10.8271 4.72934 10.7142 4.99783 10.7142 5.27778C10.7142 5.55773 10.8271 5.82621 11.028 6.02417C11.229 6.22212 11.5015 6.33333 11.7857 6.33333H18.2143C18.4985 6.33333 18.771 6.22212 18.972 6.02417C19.1729 5.82621 19.2858 5.55773 19.2858 5.27778C19.2858 4.99783 19.1729 4.72934 18.972 4.53139C18.771 4.33343 18.4985 4.22222 18.2143 4.22222H11.7857ZM23.6873 10.7688C23.8309 10.2562 24.1033 9.78759 24.4792 9.40605C24.8551 9.0245 25.3224 8.74236 25.8382 8.58562C26.3539 8.42889 26.9014 8.40261 27.4302 8.50923C27.9589 8.61584 28.4519 8.85191 28.8637 9.19565C29.2754 9.5394 29.5927 9.97976 29.7863 10.4761C29.9798 10.9725 30.0433 11.5088 29.971 12.0358C29.8987 12.5627 29.6929 13.0632 29.3726 13.4911C29.0522 13.9191 28.6277 14.2606 28.138 14.4843C26.8797 13.0055 25.3745 11.749 23.6873 10.7688ZM1.86195 14.4843C1.37233 14.2606 0.947765 13.9191 0.627421 13.4911C0.307077 13.0632 0.101266 12.5627 0.0289693 12.0358C-0.0433275 11.5088 0.0202178 10.9725 0.213745 10.4761C0.407271 9.97976 0.724549 9.5394 1.13631 9.19565C1.54808 8.85191 2.04108 8.61584 2.56983 8.50923C3.09859 8.40261 3.64609 8.42889 4.16182 8.58562C4.67756 8.74236 5.14494 9.0245 5.52084 9.40605C5.89675 9.78759 6.16908 10.2562 6.31273 10.7688C4.62627 11.7492 3.12184 13.0057 1.86409 14.4843H1.86195Z" fill="#2E68FF"/>
</svg>
