<svg width="23" height="20" viewBox="0 0 23 20" fill="none" xmlns="http://www.w3.org/2000/svg">
<path d="M7.5 4.0005V3.5755C7.5 2.5945 7.884 1.6155 8.826 1.3375C10.351 0.8875 12.649 0.8875 14.174 1.3375C15.116 1.6155 15.5 2.5945 15.5 3.5755V4.0005M18 5.5005L21.5 2.0005M5 5.5005L1.5 2.0005M5.5 16.0005L1.5 19.0005M4.5 10.0005H1M22 10.0005H18.5M17.5 16.0005L21.5 19.0005M11.5 11.0005V19.0005M4.5 7.0005C4.5 6.47007 4.71071 5.96136 5.08579 5.58629C5.46086 5.21121 5.96957 5.0005 6.5 5.0005H16.5C17.0304 5.0005 17.5391 5.21121 17.9142 5.58629C18.2893 5.96136 18.5 6.47007 18.5 7.0005V12.0005C18.5 13.857 17.7625 15.6375 16.4497 16.9502C15.137 18.263 13.3565 19.0005 11.5 19.0005V19.0005C9.64348 19.0005 7.86301 18.263 6.55025 16.9502C5.2375 15.6375 4.5 13.857 4.5 12.0005V7.0005Z" stroke="black" stroke-width="2" stroke-linecap="round" stroke-linejoin="round"/>
</svg>
