<svg width="24" height="22" viewBox="0 0 24 22" fill="none" xmlns="http://www.w3.org/2000/svg">
<path fill-rule="evenodd" clip-rule="evenodd" d="M0.782 0.000999928H21.094L21.876 0.782V9.381C21.392 9.01758 20.8675 8.71153 20.313 8.469V1.564H1.563V15.626H9.376C9.37578 17.3165 9.92387 18.9615 10.938 20.314H4.688V18.751H9.376V17.188H0.782L0 16.408V0.781L0.782 0V0.000999928ZM17.188 9.376C16.3672 9.376 15.5545 9.53766 14.7962 9.85175C14.0379 10.1658 13.3489 10.6262 12.7686 11.2066C12.1882 11.7869 11.7278 12.4759 11.4138 13.2342C11.0997 13.9925 10.938 14.8052 10.938 15.626C10.938 16.4468 11.0997 17.2595 11.4138 18.0178C11.7278 18.7761 12.1882 19.4651 12.7686 20.0454C13.3489 20.6258 14.0379 21.0862 14.7962 21.4002C15.5545 21.7143 16.3672 21.876 17.188 21.876C18.8456 21.876 20.4353 21.2175 21.6074 20.0454C22.7795 18.8733 23.438 17.2836 23.438 15.626C23.438 13.9684 22.7795 12.3787 21.6074 11.2066C20.4353 10.0345 18.8456 9.376 17.188 9.376ZM17.188 20.314C15.9445 20.314 14.752 19.82 13.8727 18.9408C12.9935 18.0615 12.4995 16.869 12.4995 15.6255C12.4995 14.382 12.9935 13.1895 13.8727 12.3102C14.752 11.431 15.9445 10.937 17.188 10.937C18.4315 10.937 19.624 11.431 20.5033 12.3102C21.3825 13.1895 21.8765 14.382 21.8765 15.6255C21.8765 16.869 21.3825 18.0615 20.5033 18.9408C19.624 19.82 18.4315 20.314 17.188 20.314ZM19.791 17.182L17.638 15.029L19.791 12.876L20.438 13.522L18.932 15.029L20.438 16.535L19.791 17.182ZM14.438 15.122L15.944 16.629L14.438 18.135L15.085 18.782L17.238 16.629L15.085 14.476L14.438 15.122Z" fill="black"/>
</svg>
