<svg width="573" height="221" viewBox="0 0 573 221" fill="none" xmlns="http://www.w3.org/2000/svg">
<path d="M97.024 205.048C91.904 205.048 87.8933 203.683 84.992 200.952C82.0907 198.051 80.64 193.955 80.64 188.664V168.696H17.408C12.1173 168.696 7.85067 167.587 4.608 165.368C1.536 163.149 0 159.651 0 154.872C0 152.141 0.682667 149.155 2.048 145.912C3.584 142.669 6.22933 138.403 9.984 133.112L80.128 31.4799C82.5173 27.8959 85.1627 25.1653 88.064 23.2879C90.9653 21.4106 94.2933 20.4719 98.048 20.4719C102.485 20.4719 106.155 21.8373 109.056 24.5679C111.957 27.1279 113.408 31.2239 113.408 36.8559V141.56H125.952C130.901 141.56 134.571 142.755 136.96 145.144C139.52 147.363 140.8 150.691 140.8 155.128C140.8 159.565 139.52 162.979 136.96 165.368C134.571 167.587 130.901 168.696 125.952 168.696H113.408V188.664C113.408 193.955 111.957 198.051 109.056 200.952C106.155 203.683 102.144 205.048 97.024 205.048ZM80.64 141.56V61.6879H88.064L27.648 150.264V141.56H80.64Z" fill="#2E68FF"/>
<path d="M528.524 205.048C523.404 205.048 519.393 203.683 516.492 200.952C513.591 198.051 512.14 193.955 512.14 188.664V168.696H448.908C443.617 168.696 439.351 167.587 436.108 165.368C433.036 163.149 431.5 159.651 431.5 154.872C431.5 152.141 432.183 149.155 433.548 145.912C435.084 142.669 437.729 138.403 441.484 133.112L511.628 31.4799C514.017 27.8959 516.663 25.1653 519.564 23.2879C522.465 21.4106 525.793 20.4719 529.548 20.4719C533.985 20.4719 537.655 21.8373 540.556 24.5679C543.457 27.1279 544.908 31.2239 544.908 36.8559V141.56H557.452C562.401 141.56 566.071 142.755 568.46 145.144C571.02 147.363 572.3 150.691 572.3 155.128C572.3 159.565 571.02 162.979 568.46 165.368C566.071 167.587 562.401 168.696 557.452 168.696H544.908V188.664C544.908 193.955 543.457 198.051 540.556 200.952C537.655 203.683 533.644 205.048 528.524 205.048ZM512.14 141.56V61.6879H519.564L459.148 150.264V141.56H512.14Z" fill="#2E68FF"/>
<circle cx="288.296" cy="110" r="110" fill="#2E68FF"/>
<path d="M270.903 197.25C267.66 197.25 264.939 199.959 264.939 203.188V221H276.867V203.188C276.867 199.959 274.183 197.25 270.903 197.25ZM306.689 197.25C303.427 197.25 300.724 199.94 300.724 203.188C300.724 206.435 303.427 209.125 306.689 209.125C309.95 209.125 312.653 206.435 312.653 203.188C312.653 199.94 309.969 197.25 306.689 197.25ZM266.43 94.8281L269.488 103.964C269.941 105.317 271.865 105.317 272.318 103.964L275.376 94.8281L284.554 91.784C285.913 91.3317 285.913 89.4183 284.554 88.966L275.376 85.9219L272.32 76.793C271.867 75.4392 269.943 75.4392 269.49 76.793L266.43 85.9219L257.26 88.9648C255.901 89.4172 255.901 91.3306 257.26 91.7829L266.43 94.8281ZM330.583 148.043C318.617 156.652 304.117 161.625 288.796 161.625C273.475 161.625 258.963 156.641 247.009 148.047C222.648 157.246 205.296 180.662 205.296 208.123C205.296 215.248 211.081 221 218.216 221H253.01V197.25C253.01 190.663 258.322 185.375 264.939 185.375H312.653C319.27 185.375 324.582 190.663 324.582 197.25V221H359.376C366.518 221 372.296 215.248 372.296 208.123C372.296 180.662 354.962 157.246 330.583 148.043ZM229.153 114.125H234.185C243.43 135.092 264.342 149.75 288.796 149.75C313.249 149.75 334.199 135.092 343.406 114.125H348.439C351.7 114.125 354.403 111.435 354.403 108.188V72.5625C354.403 69.334 351.719 66.625 348.439 66.625H343.406C334.199 45.6582 313.249 31 288.796 31C264.342 31 243.43 45.6582 234.185 66.625H229.153C225.891 66.625 223.189 69.334 223.189 72.5625V108.188C223.189 111.453 225.891 114.125 229.153 114.125ZM244.064 81.4688C244.064 73.2676 252.078 66.625 261.957 66.625H315.635C325.514 66.625 333.528 73.2602 333.528 81.4688V90.375C333.528 110.043 317.499 126 297.742 126H279.849C260.093 126 244.064 110.043 244.064 90.375V81.4688Z" fill="white"/>
</svg>
