<svg width="15" height="15" viewBox="0 0 15 15" fill="none" xmlns="http://www.w3.org/2000/svg">
<path d="M14.3113 10.7023L9.42734 1.33101C9.22985 0.973559 8.95776 0.679387 8.63616 0.475617C8.31455 0.271848 7.95379 0.165039 7.58711 0.165039C7.22044 0.165039 6.85968 0.271848 6.53807 0.475617C6.21647 0.679387 5.94438 0.973559 5.74689 1.33101L0.862973 10.7023C0.690446 11.035 0.596674 11.4144 0.591086 11.8024C0.585497 12.1904 0.668288 12.5732 0.831135 12.9125C1.01941 13.2943 1.29193 13.6114 1.62084 13.8315C1.94975 14.0515 2.32326 14.1666 2.7032 14.1649H12.471C12.8485 14.1696 13.2203 14.0589 13.549 13.8442C13.8777 13.6295 14.1516 13.3183 14.3431 12.9419C14.5107 12.5992 14.5962 12.2108 14.5906 11.8171C14.585 11.4233 14.4885 11.0384 14.3113 10.7023ZM7.58711 11.218C7.46118 11.218 7.33807 11.1748 7.23335 11.0938C7.12864 11.0129 7.04702 10.8978 6.99883 10.7632C6.95063 10.6285 6.93802 10.4804 6.96259 10.3375C6.98716 10.1946 7.04781 10.0633 7.13686 9.96028C7.22591 9.85725 7.33937 9.78708 7.46289 9.75866C7.58641 9.73023 7.71444 9.74482 7.83079 9.80058C7.94714 9.85634 8.04659 9.95077 8.11656 10.0719C8.18653 10.1931 8.22387 10.3355 8.22387 10.4812C8.22387 10.6766 8.15678 10.864 8.03737 11.0022C7.91795 11.1403 7.75599 11.218 7.58711 11.218ZM8.22387 8.27103C8.22387 8.46643 8.15678 8.65382 8.03737 8.79198C7.91795 8.93015 7.75599 9.00777 7.58711 9.00777C7.41824 9.00777 7.25628 8.93015 7.13686 8.79198C7.01745 8.65382 6.95036 8.46643 6.95036 8.27103V5.3241C6.95036 5.12871 7.01745 4.94132 7.13686 4.80315C7.25628 4.66499 7.41824 4.58737 7.58711 4.58737C7.75599 4.58737 7.91795 4.66499 8.03737 4.80315C8.15678 4.94132 8.22387 5.12871 8.22387 5.3241V8.27103Z" fill="#FF0000"/>
</svg>
