<svg width="15" height="17" viewBox="0 0 15 17" fill="none" xmlns="http://www.w3.org/2000/svg">
<path d="M7.7781 10.0221L5.88477 11.8799C5.38699 12.3777 5.11144 13.0266 5.11144 13.7199C5.11144 15.1599 6.31144 16.3333 7.7781 16.3333C9.24477 16.3333 10.4448 15.1599 10.4448 13.7199C10.4448 13.0266 10.1692 12.3688 9.67144 11.8799L7.7781 10.0221Z" fill="#E11717"/>
<path d="M11.3337 3.88881L10.9425 4.3777C9.89366 5.68436 7.7781 4.94659 7.7781 3.26659V0.333252C7.7781 0.333252 0.666992 3.88881 0.666992 10.111C0.666992 12.7066 2.05366 14.9733 4.12477 16.2088C3.62699 15.5066 3.33366 14.6444 3.33366 13.7199C3.33366 12.5466 3.79588 11.4444 4.64033 10.6088L7.7781 7.53325L10.9159 10.6177C11.7603 11.4444 12.2225 12.5466 12.2225 13.7288C12.2225 14.6355 11.947 15.471 11.467 16.1733C13.147 15.151 14.3914 13.4533 14.7648 11.4621C15.3514 8.30659 13.8137 5.32881 11.3337 3.88881Z" fill="#E11717"/>
</svg>
