<svg width="32" height="32" viewBox="0 0 32 32" fill="none" xmlns="http://www.w3.org/2000/svg">
<rect width="32" height="32" rx="16" fill="#39A41F"/>
<path fill-rule="evenodd" clip-rule="evenodd" d="M16 25C16.3788 25 16.7421 24.842 17.01 24.5607C17.2778 24.2794 17.4283 23.8979 17.4283 23.5002V12.1231L21.5586 16.5634C21.6914 16.7028 21.8491 16.8135 22.0226 16.8889C22.1961 16.9644 22.3821 17.0032 22.5699 17.0032C22.7577 17.0032 22.9437 16.9644 23.1172 16.8889C23.2907 16.8135 23.4483 16.7028 23.5811 16.5634C23.7139 16.4239 23.8193 16.2584 23.8911 16.0762C23.963 15.894 24 15.6987 24 15.5015C24 15.3043 23.963 15.109 23.8911 14.9268C23.8193 14.7446 23.7139 14.5791 23.5811 14.4396L17.0112 7.44063C16.8786 7.30096 16.721 7.19014 16.5474 7.11453C16.3739 7.03892 16.1879 7 16 7C15.8121 7 15.6261 7.03892 15.4526 7.11453C15.279 7.19014 15.1214 7.30096 14.9888 7.44063L8.41887 14.4396C8.15067 14.7213 8 15.1032 8 15.5015C8 15.8998 8.15067 16.2818 8.41887 16.5634C8.68707 16.845 9.05083 17.0032 9.43012 17.0032C9.80941 17.0032 10.1732 16.845 10.4414 16.5634L14.5717 12.1231V23.5002C14.5717 23.8979 14.7222 24.2794 14.99 24.5607C15.2579 24.842 15.6212 25 16 25Z" fill="white"/>
</svg>
