<svg width="24" height="24" viewBox="0 0 24 24" fill="none" xmlns="http://www.w3.org/2000/svg">
<path d="M1.03195 1.97755L16.1152 0.00556628C16.2003 -0.00561375 16.2871 9.05795e-05 16.3696 0.0222926C16.4521 0.0444947 16.5284 0.0826756 16.5934 0.134248C16.6584 0.18582 16.7105 0.249579 16.7462 0.321202C16.7819 0.392826 16.8004 0.470641 16.8004 0.549373V23.4508C16.8003 23.5294 16.7819 23.6071 16.7463 23.6786C16.7106 23.7502 16.6586 23.8139 16.5938 23.8654C16.5289 23.917 16.4528 23.9552 16.3704 23.9775C16.2881 23.9998 16.2014 24.0056 16.1164 23.9946L1.03075 22.0226C0.744705 21.9853 0.482966 21.8548 0.293612 21.655C0.104257 21.4552 2.77255e-06 21.1995 0 20.935V3.06517C2.77255e-06 2.80064 0.104257 2.54499 0.293612 2.34519C0.482966 2.14539 0.744705 2.01485 1.03075 1.97755H1.03195ZM2.40108 4.01875V19.9814L14.4005 21.5513V2.44885L2.40108 4.01875ZM18.0003 19.6903H21.6001V4.30988H18.0003V2.11268H22.8001C23.1183 2.11268 23.4235 2.22843 23.6485 2.43445C23.8736 2.64048 24 2.91991 24 3.21128V20.7889C24 21.0802 23.8736 21.3597 23.6485 21.5657C23.4235 21.7717 23.1183 21.8875 22.8001 21.8875H18.0003V19.6903ZM9.84071 12.0001L13.2005 16.3945H10.3207L8.40078 13.8831L6.48088 16.3945H3.60102L6.96085 12.0001L3.60102 7.60568H6.48088L8.40078 10.1171L10.3207 7.60568H13.2005L9.84071 12.0001Z" fill="white"/>
</svg>
