<svg width="16" height="16" viewBox="0 0 512 512" fill="none" xmlns="http://www.w3.org/2000/svg">
<path d="M512 0H0V512H512V0Z" fill="#00957E"/>
<path d="M81.5437 46H45V85.0195H81.5437V46Z" fill="#FFE81B"/>
<path d="M466 46H429.457V85.0195H466V46Z" fill="#FFE81B"/>
<path d="M154.524 85.0195H81.5437V124.039H154.524V85.0195Z" fill="#FFE81B"/>
<path d="M429.457 85.0195H356.476V124.039H429.457V85.0195Z" fill="#FFE81B"/>
<path d="M429.457 240.867V201.848H392.913V162.828H356.369V123.809H319.826V162.828H191.068V123.809H154.524V162.828H117.981V201.848H81.5437V240.867H45V427.978H81.5437V311.034H118.087V427.978H154.631V311.034H191.175V350.053H227.718V389.073H290.762V350.053H319.932V311.034H356.476V427.978H393.02V311.034H429.564V427.978H466V240.867H429.457ZM356.476 201.848V240.867H293.219V201.848H356.476V201.848ZM154.524 201.848H217.781V240.867H154.524V201.848Z" fill="#FFE81B"/>
<path d="M217.781 427.98H154.524V467H217.781V427.98Z" fill="#FFE81B"/>
<path d="M356.476 427.98H293.219V467H356.476V427.98Z" fill="#FFE81B"/>
</svg>
