<svg width="60" height="60" viewBox="0 0 60 60" fill="none" xmlns="http://www.w3.org/2000/svg">
<rect width="60" height="60" rx="5" fill="url(#paint0_radial_3736_46)"/>
<path d="M30 17.7108C33.9759 17.7108 34.5181 17.7108 36.1446 17.7108C37.5904 17.7108 38.3133 18.0723 38.8554 18.253C39.5783 18.6145 40.1205 18.7952 40.6627 19.3374C41.2048 19.8795 41.5663 20.4217 41.747 21.1446C41.9277 21.6867 42.1084 22.4096 42.2892 23.8554C42.2892 25.4819 42.2892 25.8434 42.2892 30C42.2892 34.1566 42.2892 34.5181 42.2892 36.1446C42.2892 37.5904 41.9277 38.3133 41.747 38.8554C41.3855 39.5783 41.2048 40.1205 40.6627 40.6627C40.1205 41.2048 39.5783 41.5663 38.8554 41.747C38.3133 41.9277 37.5904 42.1084 36.1446 42.2892C34.5181 42.2892 34.1566 42.2892 30 42.2892C25.8434 42.2892 25.4819 42.2892 23.8554 42.2892C22.4096 42.2892 21.6867 41.9277 21.1446 41.747C20.4217 41.3855 19.8795 41.2048 19.3374 40.6627C18.7952 40.1205 18.4337 39.5783 18.253 38.8554C18.0723 38.3133 17.8916 37.5904 17.7108 36.1446C17.7108 34.5181 17.7108 34.1566 17.7108 30C17.7108 25.8434 17.7108 25.4819 17.7108 23.8554C17.7108 22.4096 18.0723 21.6867 18.253 21.1446C18.6145 20.4217 18.7952 19.8795 19.3374 19.3374C19.8795 18.7952 20.4217 18.4337 21.1446 18.253C21.6867 18.0723 22.4096 17.8916 23.8554 17.7108C25.4819 17.7108 26.0241 17.7108 30 17.7108ZM30 15C25.8434 15 25.4819 15 23.8554 15C22.2289 15 21.1446 15.3614 20.241 15.7229C19.3374 16.0843 18.4337 16.6265 17.5301 17.5301C16.6265 18.4337 16.2651 19.1566 15.7229 20.241C15.3614 21.1446 15.1807 22.2289 15 23.8554C15 25.4819 15 26.0241 15 30C15 34.1566 15 34.5181 15 36.1446C15 37.7711 15.3614 38.8554 15.7229 39.759C16.0843 40.6627 16.6265 41.5663 17.5301 42.4699C18.4337 43.3735 19.1566 43.7349 20.241 44.2771C21.1446 44.6386 22.2289 44.8193 23.8554 45C25.4819 45 26.0241 45 30 45C33.9759 45 34.5181 45 36.1446 45C37.7711 45 38.8554 44.6386 39.759 44.2771C40.6627 43.9157 41.5663 43.3735 42.4699 42.4699C43.3735 41.5663 43.7349 40.8434 44.2771 39.759C44.6386 38.8554 44.8193 37.7711 45 36.1446C45 34.5181 45 33.9759 45 30C45 26.0241 45 25.4819 45 23.8554C45 22.2289 44.6386 21.1446 44.2771 20.241C43.9157 19.3374 43.3735 18.4337 42.4699 17.5301C41.5663 16.6265 40.8434 16.2651 39.759 15.7229C38.8554 15.3614 37.7711 15.1807 36.1446 15C34.5181 15 34.1566 15 30 15Z" fill="white"/>
<path d="M30 22.2289C25.6627 22.2289 22.2289 25.6627 22.2289 30C22.2289 34.3374 25.6627 37.7711 30 37.7711C34.3374 37.7711 37.7711 34.3374 37.7711 30C37.7711 25.6627 34.3374 22.2289 30 22.2289ZM30 35.0602C27.2892 35.0602 24.9398 32.8916 24.9398 30C24.9398 27.2892 27.1084 24.9398 30 24.9398C32.7108 24.9398 35.0602 27.1084 35.0602 30C35.0602 32.7108 32.7108 35.0602 30 35.0602Z" fill="white"/>
<path d="M37.9518 23.8554C38.9499 23.8554 39.759 23.0463 39.759 22.0482C39.759 21.0501 38.9499 20.241 37.9518 20.241C36.9537 20.241 36.1446 21.0501 36.1446 22.0482C36.1446 23.0463 36.9537 23.8554 37.9518 23.8554Z" fill="white"/>
<defs>
<radialGradient id="paint0_radial_3736_46" cx="0" cy="0" r="1" gradientUnits="userSpaceOnUse" gradientTransform="translate(61.207 1.21875) scale(138.558)">
<stop stop-color="#F9ED32"/>
<stop offset="0.36" stop-color="#EE2A7B"/>
<stop offset="0.44" stop-color="#D22A8A"/>
<stop offset="0.6" stop-color="#8B2AB2"/>
<stop offset="0.83" stop-color="#1B2AF0"/>
<stop offset="0.88" stop-color="#002AFF"/>
</radialGradient>
</defs>
</svg>
