<svg width="14" height="15" viewBox="0 0 14 15" fill="none" xmlns="http://www.w3.org/2000/svg">
<path d="M11.9512 2.70841C10.6341 1.39591 8.87805 0.666748 7.02439 0.666748C3.17073 0.666748 0.0487797 3.77786 0.0487797 7.61814C0.0487797 8.83342 0.390244 10.0487 0.97561 11.0695L0 14.6667L3.70732 13.6945C4.73171 14.2292 5.85366 14.5209 7.02439 14.5209C10.878 14.5209 14 11.4098 14 7.56953C13.9512 5.77092 13.2683 4.02091 11.9512 2.70841ZM10.3902 10.0973C10.2439 10.4862 9.56097 10.8751 9.21951 10.9237C8.92683 10.9723 8.53659 10.9723 8.14634 10.8751C7.90244 10.7779 7.56098 10.6806 7.17073 10.4862C5.41463 9.75703 4.29268 8.00703 4.19512 7.86119C4.09756 7.76397 3.46342 6.93758 3.46342 6.06258C3.46342 5.18758 3.90244 4.79869 4.04878 4.60425C4.19512 4.4098 4.39024 4.4098 4.53658 4.4098C4.63415 4.4098 4.78049 4.4098 4.87805 4.4098C4.97561 4.4098 5.12195 4.36119 5.26829 4.70147C5.41463 5.04175 5.7561 5.91675 5.80488 5.96536C5.85366 6.06258 5.85366 6.1598 5.80488 6.25703C5.7561 6.35425 5.70731 6.45147 5.60975 6.54869C5.51219 6.64591 5.41463 6.79175 5.36585 6.84036C5.26829 6.93758 5.17073 7.0348 5.26829 7.18064C5.36585 7.37508 5.70732 7.9098 6.2439 8.39591C6.92683 8.97925 7.46341 9.17369 7.65854 9.27092C7.85366 9.36814 7.95122 9.31953 8.04878 9.2223C8.14634 9.12508 8.48781 8.73619 8.58537 8.54175C8.68293 8.3473 8.82927 8.39592 8.97561 8.44453C9.12195 8.49314 10 8.93064 10.1463 9.02786C10.3415 9.12508 10.439 9.17369 10.4878 9.2223C10.5366 9.36814 10.5366 9.70841 10.3902 10.0973Z" fill="#282828"/>
</svg>
