<svg width="14" height="16" viewBox="0 0 14 16" xmlns="http://www.w3.org/2000/svg">
<path d="M10.836 0.363942C8.29494 -0.121314 5.65619 -0.121314 3.11518 0.363942C1.99127 0.606571 0.574171 1.96529 0.329843 3.03285C-0.109948 5.11946 -0.109948 7.25459 0.329843 9.34119C0.623037 10.4088 2.04014 11.7675 3.11518 12.0101C3.16405 12.0101 3.21291 12.0586 3.21291 12.1072V15.1643C3.21291 15.3098 3.40838 15.4069 3.50611 15.2613L4.97208 13.757C4.97208 13.757 6.14485 12.5439 6.34031 12.3498C6.34031 12.3498 6.38918 12.3013 6.43805 12.3013C7.90402 12.3498 9.41885 12.2042 10.8848 11.9616C12.0087 11.7189 13.4258 10.3602 13.6702 9.29266C14.1099 7.20606 14.1099 5.07093 13.6702 2.98433C13.377 1.96529 11.9599 0.606571 10.836 0.363942ZM10.8848 9.48677C10.6405 9.97202 10.3473 10.3602 9.85864 10.6029C9.71204 10.6514 9.56544 10.6999 9.41885 10.7484C9.22339 10.6999 9.07679 10.6514 8.93019 10.6029C7.36649 9.97202 5.90052 9.09856 4.72775 7.83689C4.0925 7.10901 3.55497 6.28407 3.11518 5.41061C2.91972 4.97388 2.72426 4.58567 2.57766 4.14894C2.43106 3.76074 2.67539 3.37253 2.91972 3.08138C3.16405 2.79023 3.45724 2.59612 3.7993 2.45055C4.04363 2.30497 4.28796 2.40202 4.48342 2.59612C4.87435 3.08138 5.26527 3.56664 5.55846 4.10042C5.75393 4.4401 5.70506 4.8283 5.363 5.07093C5.26527 5.11946 5.2164 5.16798 5.11867 5.26503C5.06981 5.31356 4.97207 5.36208 4.92321 5.45914C4.82548 5.60471 4.82548 5.75029 4.87434 5.89587C5.26527 7.01196 5.99825 7.88542 7.12216 8.37068C7.31762 8.46773 7.46422 8.51625 7.70855 8.51625C8.05061 8.46773 8.19721 8.07952 8.44154 7.88542C8.68586 7.69132 8.97906 7.69132 9.27225 7.83689C9.51658 7.98247 9.76091 8.17657 10.0541 8.37068C10.2984 8.56478 10.5428 8.71036 10.7871 8.90446C10.9337 9.00151 10.9825 9.24414 10.8848 9.48677ZM8.83246 5.84734C8.73473 5.84734 8.78359 5.84734 8.83246 5.84734C8.637 5.84734 8.58813 5.75029 8.53927 5.60471C8.53927 5.50766 8.53927 5.36209 8.4904 5.26503C8.44153 5.07093 8.34381 4.87683 8.14834 4.73125C8.05061 4.68273 7.95288 4.6342 7.85515 4.58567C7.70855 4.53715 7.61082 4.53715 7.46422 4.53715C7.31763 4.48862 7.26876 4.39157 7.26876 4.246C7.26876 4.14894 7.41536 4.05189 7.51309 4.05189C8.29494 4.10042 8.88133 4.53715 8.97906 5.45914C8.97906 5.50766 8.97906 5.60471 8.97906 5.65324C8.97906 5.75029 8.93019 5.84734 8.83246 5.84734ZM8.3438 3.71221C8.09947 3.61516 7.85515 3.51811 7.56195 3.46958C7.46422 3.46958 7.31763 3.42106 7.2199 3.42106C7.0733 3.42106 6.97557 3.32401 7.02443 3.17843C7.02443 3.03285 7.12216 2.9358 7.26876 2.98433C7.75742 3.03285 8.19721 3.12991 8.637 3.32401C9.51658 3.76074 10.0052 4.48862 10.1518 5.45914C10.1518 5.50766 10.1518 5.55619 10.1518 5.60471C10.1518 5.70177 10.1518 5.79882 10.1518 5.94439C10.1518 5.99292 10.1518 6.04145 10.1518 6.08997C10.103 6.28407 9.76091 6.3326 9.71204 6.08997C9.71204 6.04145 9.66318 5.94439 9.66318 5.89587C9.66318 5.45914 9.56545 5.02241 9.36998 4.6342C9.07679 4.19747 8.73473 3.90632 8.3438 3.71221ZM10.9825 6.62375C10.8359 6.62375 10.7382 6.47818 10.7382 6.3326C10.7382 6.04145 10.6894 5.75029 10.6405 5.45914C10.445 3.90631 9.17452 2.64465 7.65969 2.40202C7.41536 2.35349 7.17103 2.35349 6.97557 2.30497C6.82897 2.30497 6.63351 2.30497 6.58464 2.11087C6.53578 1.96529 6.68237 1.81971 6.82897 1.81971C6.87783 1.81971 6.9267 1.81971 6.9267 1.81971C8.93019 1.86824 7.02443 1.81971 6.9267 1.81971C8.97906 1.86824 10.6894 3.22696 11.0314 5.26503C11.0803 5.60471 11.1291 5.94439 11.1291 6.3326C11.2269 6.47818 11.1291 6.62375 10.9825 6.62375Z"/>
</svg>
