<svg width="14" height="14" viewBox="0 0 14 14" fill="none" xmlns="http://www.w3.org/2000/svg">
<rect width="14" height="14" rx="3" fill="#2E68FF"/>
<path d="M10.6271 4.26408L9.5931 3.23107C9.52017 3.15781 9.43348 3.09968 9.33801 3.06003C9.24254 3.02038 9.14018 2.99998 9.0368 3C8.82613 3 8.62807 3.08252 8.47953 3.23107L7.36693 4.34369C7.29367 4.41663 7.23554 4.50332 7.19589 4.59879C7.15624 4.69426 7.13584 4.79662 7.13586 4.9C7.13586 5.11068 7.21838 5.30874 7.36693 5.45728L8.1805 6.27087C7.99006 6.69064 7.72529 7.07251 7.39896 7.39806C7.07345 7.72518 6.69162 7.99092 6.2718 8.18252L5.45822 7.36893C5.38528 7.29567 5.29859 7.23755 5.20312 7.19789C5.10765 7.15824 5.00529 7.13784 4.90191 7.13786C4.69124 7.13786 4.49318 7.22039 4.34464 7.36893L3.23107 8.48058C3.15772 8.55366 3.09954 8.64051 3.05989 8.73615C3.02023 8.83179 2.99988 8.93433 3 9.03786C3 9.24854 3.08252 9.4466 3.23107 9.59515L4.26309 10.6272C4.49998 10.865 4.82716 11 5.16307 11C5.23395 11 5.30191 10.9942 5.3689 10.9825C6.67762 10.767 7.97565 10.0709 9.02321 9.02427C10.0698 7.97864 10.7649 6.68155 10.9834 5.36893C11.0494 4.96796 10.9164 4.55534 10.6271 4.26408Z" fill="white"/>
</svg>
