<svg width="14" height="14" viewBox="0 0 14 14" fill="none" xmlns="http://www.w3.org/2000/svg">
<path d="M13.3333 5.73337C13.4 5.40004 13.1333 5.00004 12.8 5.00004L9 4.46671L7.26667 1.00004C7.2 0.866707 7.13333 0.80004 7 0.733374C6.66667 0.533374 6.26667 0.666707 6.06667 1.00004L4.4 4.46671L0.6 5.00004C0.4 5.00004 0.266667 5.06671 0.2 5.20004C-0.0666667 5.46671 -0.0666667 5.86671 0.2 6.13337L2.93333 8.80004L2.26667 12.6C2.26667 12.7334 2.26667 12.8667 2.33333 13C2.53333 13.3334 2.93333 13.4667 3.26667 13.2667L6.66667 11.4667L10.0667 13.2667C10.1333 13.3334 10.2667 13.3334 10.4 13.3334H10.5333C10.8667 13.2667 11.1333 12.9334 11.0667 12.5334L10.4 8.73337L13.1333 6.06671C13.2667 6.00004 13.3333 5.86671 13.3333 5.73337Z" fill="white"/>
</svg>
