<svg width="12" height="16" viewBox="0 0 12 16" fill="none" xmlns="http://www.w3.org/2000/svg">
<path d="M7 4V0H1.5C0.671562 0 0 0.671562 0 1.5V14.5C0 15.3281 0.671562 16 1.5 16H10.5C11.3284 16 12 15.3284 12 14.5V5H8.02812C7.44687 5 7 4.55312 7 4ZM8.50313 8.2625L7 10.75L8.53094 13.2378C8.7375 13.5719 8.49687 14 8.10625 14H7.28031C7.1949 14 7.11092 13.9781 7.03637 13.9364C6.96181 13.8948 6.89916 13.8347 6.85437 13.762L6 12.375L5.14656 13.7619C5.05625 13.9094 4.89375 14 4.72188 14H3.89375C3.5025 14 3.26281 13.5709 3.46781 13.2378L5 10.75L3.46875 8.2625C3.2625 7.92812 3.50312 7.5 3.89375 7.5H4.71969C4.89334 7.5 5.05438 7.59009 5.14563 7.73791L6 9.125L6.85344 7.73781C6.94375 7.59062 7.10625 7.5 7.27812 7.5H8.10406C8.49687 7.5 8.7375 7.92812 8.50313 8.2625ZM8 0V4H12L8 0Z" fill="#282828"/>
</svg>
