<svg width="13" height="16" viewBox="0 0 13 16" fill="none" xmlns="http://www.w3.org/2000/svg">
<path d="M6.52667 14.335L0 7.80829V9.14163C0 9.49496 0.14 9.83496 0.393333 10.0816L5.58667 15.275C6.10667 15.795 6.95333 15.795 7.47333 15.275L11.6133 11.135C12.1333 10.615 12.1333 9.7683 11.6133 9.24829L6.52667 14.335Z" fill="white"/>
<path d="M5.58667 11.9416C6.10667 12.4616 6.95333 12.4616 7.47333 11.9416L11.6133 7.80163C12.1333 7.28163 12.1333 6.43496 11.6133 5.91496L6.42 0.721628C6.16676 0.474495 5.82717 0.335791 5.47333 0.334961H1.33333C0.6 0.334961 0 0.934961 0 1.66829V5.80829C0 6.16163 0.14 6.50163 0.393333 6.74829L5.58667 11.9416ZM2.83333 2.33496C3.05435 2.33496 3.26631 2.42276 3.42259 2.57904C3.57887 2.73532 3.66667 2.94728 3.66667 3.16829C3.66667 3.38931 3.57887 3.60127 3.42259 3.75755C3.26631 3.91383 3.05435 4.00163 2.83333 4.00163C2.61232 4.00163 2.40036 3.91383 2.24408 3.75755C2.0878 3.60127 2 3.38931 2 3.16829C2 2.94728 2.0878 2.73532 2.24408 2.57904C2.40036 2.42276 2.61232 2.33496 2.83333 2.33496Z" fill="white"/>
</svg>
