<svg width="50" height="50" viewBox="0 0 50 50" fill="none" xmlns="http://www.w3.org/2000/svg">
<path fill-rule="evenodd" clip-rule="evenodd" d="M25 0C38.8068 0 50 11.1932 50 25C50 38.8068 38.8068 50 25 50C11.1932 50 0 38.8068 0 25C0 11.1932 11.1932 0 25 0ZM19.9841 17.5159C19.5701 17.0873 19.341 16.5132 19.3462 15.9173C19.3514 15.3214 19.5904 14.7513 20.0118 14.33C20.4332 13.9086 21.0032 13.6696 21.5991 13.6644C22.195 13.6592 22.7691 13.8883 23.1977 14.3023L32.2886 23.3932C32.7147 23.8194 32.9541 24.3974 32.9541 25C32.9541 25.6026 32.7147 26.1806 32.2886 26.6068L23.1977 35.6977C22.7691 36.1117 22.195 36.3408 21.5991 36.3356C21.0032 36.3304 20.4332 36.0914 20.0118 35.67C19.5904 35.2487 19.3514 34.6786 19.3462 34.0827C19.341 33.4868 19.5701 32.9127 19.9841 32.4841L27.4682 25L19.9841 17.5159Z" fill="white"/>
</svg>
