<?xml version="1.0" encoding="iso-8859-1"?>
<!-- Generator: Adobe Illustrator 16.0.0, SVG Export Plug-In . SVG Version: 6.00 Build 0)  -->
<!DOCTYPE svg PUBLIC "-//W3C//DTD SVG 1.1//EN" "http://www.w3.org/Graphics/SVG/1.1/DTD/svg11.dtd">
<svg xmlns="http://www.w3.org/2000/svg" version="1.1" xmlns:xlink="http://www.w3.org/1999/xlink" xmlns:svgjs="http://svgjs.com/svgjs" width="24px" height="24px" x="0" y="0" viewBox="0 0 20 20" style="enable-background:new 0 0 512 512" xml:space="preserve" class=""><path d="m15 0h-10c-2.8 0-5 2.2-5 5v10c0 2.8 2.2 5 5 5h10c2.8 0 5-2.2 5-5v-10c0-2.8-2.2-5-5-5zm3 15c0 1.7-1.3 3-3 3h-10c-1.7 0-3-1.3-3-3v-10c0-1.7 1.3-3 3-3h10c1.7 0 3 1.3 3 3z" data-original="#000000" class=""></path><path d="m10 5c-2.8 0-5 2.2-5 5s2.2 5 5 5 5-2.2 5-5-2.2-5-5-5zm0 8c-1.7 0-3-1.3-3-3s1.3-3 3-3 3 1.3 3 3-1.3 3-3 3z" data-original="#000000" class=""></path><circle cx="15" cy="5" r="1" data-original="#000000" class=""></circle></svg>