<svg width="16" height="16" viewBox="0 0 9 9" xmlns="http://www.w3.org/2000/svg" style="background-color: #cecece;">
<path fill-rule="evenodd" clip-rule="evenodd" d="M8.28191 0H0.501665C0.224195 0 0 0.226415 0 0.501665V8.28191C0 8.55938 0.224195 8.78358 0.501665 8.78358H8.28191C8.55938 8.78358 8.78358 8.55938 8.78358 8.28191V0.501665C8.78358 0.224196 8.55938 0 8.28191 0ZM7.52941 2.51074V1.25659H1.25415V3.13894H2.51052V2.51074H5.01885V3.76493H6.27524V2.51074H7.52941ZM5.01881 3.76489H3.76465V5.01905H5.01881V3.76489ZM7.52941 7.52956V5.6472H6.27524V6.2754H3.76468V5.02124H2.51052V6.2754H1.25415V7.52956H7.52941Z" fill="#000"/>
</svg>
