<svg width="11" height="10" viewBox="0 0 11 10" fill="none" xmlns="http://www.w3.org/2000/svg">
<path d="M9.73549 0.969934C9.80374 0.9003 9.88519 0.844981 9.97508 0.807217C10.065 0.769452 10.1615 0.75 10.259 0.75C10.3565 0.75 10.453 0.769452 10.5429 0.807217C10.6328 0.844981 10.7142 0.9003 10.7825 0.969934C11.0685 1.25893 11.0725 1.72593 10.7925 2.01993L4.87949 9.00993C4.81236 9.08366 4.73089 9.1429 4.64007 9.18406C4.54925 9.22521 4.45099 9.2474 4.3513 9.24927C4.25161 9.25115 4.15258 9.23266 4.06028 9.19495C3.96798 9.15723 3.88435 9.10108 3.81449 9.02993L0.216492 5.38393C0.077729 5.24242 0 5.05213 0 4.85393C0 4.65574 0.077729 4.46545 0.216492 4.32393C0.284738 4.2543 0.36619 4.19898 0.45608 4.16122C0.54597 4.12345 0.642491 4.104 0.739992 4.104C0.837493 4.104 0.934014 4.12345 1.0239 4.16122C1.11379 4.19898 1.19525 4.2543 1.26349 4.32393L4.31549 7.41693L9.71549 0.991934C9.72171 0.984206 9.72839 0.976859 9.73549 0.969934Z" fill="#57CA3A"/>
</svg>
