<svg width="154" height="40" viewBox="0 0 154 40" fill="none" xmlns="http://www.w3.org/2000/svg">
<rect width="20" height="20" rx="10" fill="#2E68FF"/>
<rect x="52" y="30" width="10" height="10" rx="5" fill="#2E68FF"/>
<rect x="148" y="2" width="6" height="6" rx="3" fill="#2E68FF"/>
<rect x="10" width="40" height="40" rx="20" fill="#2E68FF"/>
<path d="M30 20.7895C29.5593 20.7895 29.1901 20.6379 28.8924 20.3347C28.5938 20.0326 28.4444 19.6579 28.4444 19.2105V6.57895C28.4444 6.13158 28.5938 5.75632 28.8924 5.45316C29.1901 5.15105 29.5593 5 30 5C30.4407 5 30.8104 5.15105 31.1091 5.45316C31.4067 5.75632 31.5556 6.13158 31.5556 6.57895V19.2105C31.5556 19.6579 31.4067 20.0326 31.1091 20.3347C30.8104 20.6379 30.4407 20.7895 30 20.7895ZM30 35C28.0556 35 26.2345 34.6253 24.5369 33.8758C22.8382 33.1253 21.3604 32.1116 20.1036 30.8347C18.8456 29.5589 17.847 28.0589 17.1076 26.3347C16.3692 24.6116 16 22.7632 16 20.7895C16 19.1316 16.266 17.5463 16.798 16.0337C17.329 14.52 18.0741 13.1579 19.0333 11.9474C19.3185 11.5789 19.6815 11.4011 20.1222 11.4137C20.563 11.4274 20.9519 11.6053 21.2889 11.9474C21.5741 12.2368 21.7037 12.5921 21.6778 13.0132C21.6519 13.4342 21.5093 13.8289 21.25 14.1974C20.5759 15.1184 20.0512 16.1379 19.6758 17.2558C19.2993 18.3747 19.1111 19.5526 19.1111 20.7895C19.1111 23.8684 20.1679 26.48 22.2813 28.6242C24.3938 30.7695 26.9667 31.8421 30 31.8421C33.0333 31.8421 35.6062 30.7695 37.7187 28.6242C39.8321 26.48 40.8889 23.8684 40.8889 20.7895C40.8889 19.5526 40.7012 18.3616 40.3258 17.2163C39.9493 16.0721 39.4111 15.0395 38.7111 14.1184C38.4519 13.7763 38.3093 13.4011 38.2833 12.9926C38.2574 12.5853 38.387 12.2368 38.6722 11.9474C38.9833 11.6316 39.3593 11.4668 39.8 11.4532C40.2407 11.4405 40.6037 11.6053 40.8889 11.9474C41.8741 13.1579 42.6389 14.52 43.1833 16.0337C43.7278 17.5463 44 19.1316 44 20.7895C44 22.7632 43.6308 24.6116 42.8924 26.3347C42.153 28.0589 41.1549 29.5589 39.898 30.8347C38.6401 32.1116 37.1623 33.1253 35.4647 33.8758C33.766 34.6253 31.9444 35 30 35Z" fill="white"/>
<path d="M67.35 30.45C66.69 30.45 66.18 30.28 65.82 29.94C65.48 29.58 65.31 29.07 65.31 28.41V11.34C65.31 10.68 65.48 10.18 65.82 9.84C66.18 9.48 66.69 9.3 67.35 9.3H74.55C76.03 9.3 77.29 9.52 78.33 9.96C79.37 10.4 80.16 11.03 80.7 11.85C81.26 12.67 81.54 13.65 81.54 14.79C81.54 16.07 81.17 17.15 80.43 18.03C79.69 18.91 78.68 19.5 77.4 19.8V19.35C78.88 19.57 80.03 20.13 80.85 21.03C81.67 21.93 82.08 23.1 82.08 24.54C82.08 26.42 81.44 27.88 80.16 28.92C78.9 29.94 77.14 30.45 74.88 30.45H67.35ZM69 27.54H74.4C75.76 27.54 76.76 27.28 77.4 26.76C78.04 26.22 78.36 25.42 78.36 24.36C78.36 23.28 78.04 22.48 77.4 21.96C76.76 21.44 75.76 21.18 74.4 21.18H69V27.54ZM69 18.27H73.89C75.21 18.27 76.19 18.02 76.83 17.52C77.49 17 77.82 16.24 77.82 15.24C77.82 14.24 77.49 13.49 76.83 12.99C76.19 12.47 75.21 12.21 73.89 12.21H69V18.27Z" fill="black"/>
<path d="M87.5843 30.69C87.3243 30.69 87.0943 30.65 86.8943 30.57C86.6943 30.49 86.5243 30.37 86.3843 30.21C86.2443 30.03 86.1343 29.82 86.0543 29.58C85.9943 29.34 85.9643 29.06 85.9643 28.74V10.89C85.9643 10.31 86.1143 9.86 86.4143 9.54C86.7343 9.22 87.1843 9.06 87.7643 9.06C88.3443 9.06 88.7843 9.22 89.0843 9.54C89.3843 9.86 89.5343 10.31 89.5343 10.89V25.08H88.8443L100.244 10.17C100.544 9.77 100.834 9.49 101.114 9.33C101.394 9.15 101.764 9.06 102.224 9.06C102.544 9.06 102.814 9.13 103.034 9.27C103.274 9.41 103.454 9.62 103.574 9.9C103.714 10.16 103.784 10.47 103.784 10.83V28.83C103.784 29.43 103.634 29.89 103.334 30.21C103.034 30.53 102.594 30.69 102.014 30.69C101.434 30.69 100.984 30.53 100.664 30.21C100.364 29.89 100.214 29.43 100.214 28.83V14.64H100.874L89.5043 29.55C89.1843 29.95 88.8943 30.24 88.6343 30.42C88.3943 30.6 88.0443 30.69 87.5843 30.69Z" fill="black"/>
<path d="M110.326 30.69C109.706 30.69 109.226 30.52 108.886 30.18C108.566 29.82 108.406 29.33 108.406 28.71V11.01C108.406 10.37 108.566 9.89 108.886 9.57C109.226 9.23 109.706 9.06 110.326 9.06C110.946 9.06 111.416 9.23 111.736 9.57C112.076 9.89 112.246 10.37 112.246 11.01V18.27H115.666L114.916 18.78L120.436 10.05C120.716 9.63 121.036 9.35 121.396 9.21C121.776 9.07 122.146 9.04 122.506 9.12C122.866 9.2 123.176 9.37 123.436 9.63C123.696 9.89 123.836 10.21 123.856 10.59C123.896 10.97 123.776 11.38 123.496 11.82L118.456 19.53L116.956 18.42C118.256 18.62 119.356 19.09 120.256 19.83C121.156 20.57 121.926 21.6 122.566 22.92L125.026 27.96C125.286 28.46 125.366 28.91 125.266 29.31C125.186 29.71 124.986 30.03 124.666 30.27C124.366 30.49 124.016 30.62 123.616 30.66C123.236 30.7 122.856 30.63 122.476 30.45C122.116 30.25 121.826 29.92 121.606 29.46L119.236 24.36C118.756 23.32 118.176 22.58 117.496 22.14C116.836 21.7 116.006 21.48 115.006 21.48H112.246V28.71C112.246 29.33 112.086 29.82 111.766 30.18C111.446 30.52 110.966 30.69 110.326 30.69Z" fill="black"/>
<path d="M137.749 30.75C135.709 30.75 133.919 30.3 132.379 29.4C130.859 28.5 129.679 27.24 128.839 25.62C127.999 23.98 127.579 22.06 127.579 19.86C127.579 18.2 127.819 16.71 128.299 15.39C128.779 14.05 129.459 12.91 130.339 11.97C131.239 11.01 132.309 10.28 133.549 9.78C134.809 9.26 136.209 9 137.749 9C139.809 9 141.599 9.45 143.119 10.35C144.639 11.23 145.819 12.48 146.659 14.1C147.499 15.72 147.919 17.63 147.919 19.83C147.919 21.49 147.679 22.99 147.199 24.33C146.719 25.67 146.029 26.82 145.129 27.78C144.249 28.74 143.179 29.48 141.919 30C140.679 30.5 139.289 30.75 137.749 30.75ZM137.749 27.45C139.049 27.45 140.149 27.15 141.049 26.55C141.969 25.95 142.669 25.08 143.149 23.94C143.649 22.8 143.899 21.44 143.899 19.86C143.899 17.46 143.359 15.6 142.279 14.28C141.219 12.96 139.709 12.3 137.749 12.3C136.469 12.3 135.369 12.6 134.449 13.2C133.529 13.78 132.819 14.64 132.319 15.78C131.839 16.9 131.599 18.26 131.599 19.86C131.599 22.24 132.139 24.1 133.219 25.44C134.299 26.78 135.809 27.45 137.749 27.45Z" fill="black"/>
</svg>
