<svg width="64" height="64" viewBox="0 0 64 64" fill="none" xmlns="http://www.w3.org/2000/svg">
<rect width="64" height="64" rx="32" fill="#1C212D"/>
<path d="M16.2523 42.661L29.2871 17.8637H29.2447C30.0501 16.298 31.9576 15.7056 33.5048 16.5308C34.0559 16.827 34.5222 17.2924 34.8189 17.8426L37.0656 22.0953M39.4394 20.2334C40.6687 18.9851 42.6822 18.9851 43.9115 20.2123C44.3778 20.6777 44.6745 21.2702 44.7805 21.9261L47.9597 41.2011C48.1716 42.5129 47.5358 43.8247 46.3489 44.4595L33.4837 50.5953C32.5087 51.1243 31.343 51.1454 30.3892 50.5953L17.63 44.4171C16.4643 43.7612 15.8284 42.4706 16.0404 41.1588L20.1946 15.6844C20.4489 13.9495 22.0809 12.7646 23.7977 13.0397C24.7726 13.1878 25.6416 13.8014 26.1079 14.6688L28.736 18.3927M16.3371 42.9361L39.503 20.3392" stroke="#FFC475" stroke-width="2" stroke-linecap="round" stroke-linejoin="round"/>
</svg>
