<svg width="64" height="64" viewBox="0 0 64 64" fill="none" xmlns="http://www.w3.org/2000/svg">
<rect width="64" height="64" rx="32" fill="#1C212D"/>
<path d="M26 31.0607L30 35.1024L39 26.0086M48 32.0711C48 41.9904 37.2921 49.2047 33.396 51.5014C32.9532 51.7624 32.7318 51.8929 32.4194 51.9606C32.1769 52.0131 31.8231 52.0131 31.5806 51.9606C31.2682 51.8929 31.0468 51.7624 30.604 51.5014C26.7079 49.2047 16 41.9904 16 32.0711V22.4066C16 20.7909 16 19.983 16.2615 19.2886C16.4925 18.6752 16.868 18.1278 17.3553 17.6938C17.907 17.2026 18.6556 16.9189 20.1528 16.3516L30.8764 12.2883C31.2922 12.1308 31.5001 12.052 31.714 12.0208C31.9037 11.9931 32.0963 11.9931 32.286 12.0208C32.4999 12.052 32.7078 12.1308 33.1236 12.2883L43.8472 16.3516C45.3444 16.9189 46.093 17.2026 46.6447 17.6938C47.132 18.1278 47.5075 18.6752 47.7385 19.2886C48 19.983 48 20.7909 48 22.4066V32.0711Z" stroke="#FFC475" stroke-width="2" stroke-linecap="round" stroke-linejoin="round"/>
</svg>
