<svg width="64" height="64" viewBox="0 0 64 64" fill="none" xmlns="http://www.w3.org/2000/svg">
<rect width="64" height="64" rx="32" fill="#1C212D"/>
<path d="M33.6 20.2222C33.6 22.0018 29.6601 23.4444 24.8 23.4444C19.9399 23.4444 16 22.0018 16 20.2222M33.6 20.2222C33.6 18.4426 29.6601 17 24.8 17C19.9399 17 16 18.4426 16 20.2222M33.6 20.2222V22.6389M16 20.2222V39.5556C16 41.3351 19.9399 42.7778 24.8 42.7778M24.8 29.8889C24.5303 29.8889 24.2635 29.8844 24 29.8758C19.5148 29.7278 16 28.3475 16 26.6667M24.8 36.3333C19.9399 36.3333 16 34.8907 16 33.1111M48 30.6944C48 32.474 44.0601 33.9167 39.2 33.9167C34.3399 33.9167 30.4 32.474 30.4 30.6944M48 30.6944C48 28.9149 44.0601 27.4722 39.2 27.4722C34.3399 27.4722 30.4 28.9149 30.4 30.6944M48 30.6944V42.7778C48 44.5574 44.0601 46 39.2 46C34.3399 46 30.4 44.5574 30.4 42.7778V30.6944M48 36.7361C48 38.5157 44.0601 39.9583 39.2 39.9583C34.3399 39.9583 30.4 38.5157 30.4 36.7361" stroke="#FFC475" stroke-width="2" stroke-linecap="round" stroke-linejoin="round"/>
</svg>
