<svg width="64" height="64" viewBox="0 0 64 64" fill="none" xmlns="http://www.w3.org/2000/svg">
<rect width="64" height="64" rx="32" fill="#1C212D"/>
<path d="M27.7895 40.5714C27.7895 42.465 26.2814 44 24.4211 44C22.5607 44 21.0526 42.465 21.0526 40.5714M27.7895 40.5714C27.7895 38.6779 26.2814 37.1429 24.4211 37.1429C22.5607 37.1429 21.0526 38.6779 21.0526 40.5714M27.7895 40.5714H37.8947M21.0526 40.5714H17.6842V33.7143M44.6316 40.5714C44.6316 42.465 43.1235 44 41.2632 44C39.4028 44 37.8947 42.465 37.8947 40.5714M44.6316 40.5714C44.6316 38.6779 43.1235 37.1429 41.2632 37.1429C39.4028 37.1429 37.8947 38.6779 37.8947 40.5714M44.6316 40.5714H48V30.2857M16 20H34.5263V40.5714M48 30.2857H34.5263M48 30.2857L42.9474 21.7143H34.5263M17.6842 26.8571H24.4211" stroke="#FFC475" stroke-width="2" stroke-linecap="round" stroke-linejoin="round"/>
</svg>
