<svg width="60" height="60" viewBox="0 0 60 60" fill="none" xmlns="http://www.w3.org/2000/svg">
<rect width="60" height="60" rx="30" transform="matrix(-1 0 0 1 60 0)" fill="#1C212D"/>
<path d="M44.8 37.2C44.8 37.808 44.464 38.336 43.952 38.608L31.312 45.712C31.056 45.904 30.736 46 30.4 46C30.064 46 29.744 45.904 29.488 45.712L16.848 38.608C16.5915 38.4732 16.3768 38.2707 16.2273 38.0225C16.0778 37.7742 15.9992 37.4898 16 37.2V22.8C16 22.192 16.336 21.664 16.848 21.392L29.488 14.288C29.744 14.096 30.064 14 30.4 14C30.736 14 31.056 14.096 31.312 14.288L43.952 21.392C44.464 21.664 44.8 22.192 44.8 22.8V37.2ZM30.4 17.44L27.376 19.152L36.8 24.576L39.936 22.8L30.4 17.44ZM20.864 22.8L30.4 28.16L33.536 26.4L24.128 20.96L20.864 22.8ZM19.2 36.256L28.8 41.664V30.928L19.2 25.536V36.256ZM41.6 36.256V25.536L32 30.928V41.664L41.6 36.256Z" fill="#FFC475"/>
</svg>
