<svg width="60" height="60" viewBox="0 0 60 60" fill="none" xmlns="http://www.w3.org/2000/svg">
<rect width="60" height="60" rx="30" transform="matrix(-1 0 0 1 60 0)" fill="#1C212D"/>
<path d="M38.7239 44.768C37.9903 45.068 37.1631 45.0745 36.4244 44.7863C35.6857 44.4981 35.096 43.9386 34.785 43.231C34.474 42.5234 34.4671 41.7256 34.766 41.0132C35.0649 40.3007 35.6449 39.732 36.3786 39.432C36.7419 39.2835 37.1319 39.2054 37.5265 39.2023C37.921 39.1991 38.3123 39.271 38.6781 39.4137C39.0439 39.5564 39.3769 39.7672 39.6582 40.0341C39.9395 40.301 40.1635 40.6186 40.3175 40.969C40.4715 41.3194 40.5525 41.6956 40.5557 42.0761C40.559 42.4566 40.4845 42.8341 40.3365 43.1868C40.1885 43.5396 39.97 43.8608 39.6933 44.1321C39.4166 44.4034 39.0872 44.6195 38.7239 44.768ZM24.9526 21.8C26.6214 21.8 27.9595 20.5095 27.9595 18.9C27.9595 18.1309 27.6427 17.3932 27.0788 16.8494C26.5149 16.3055 25.7501 16 24.9526 16C23.2688 16 21.9458 17.305 21.9458 18.9C21.9458 20.5095 23.2688 21.8 24.9526 21.8ZM46.6469 36.793L40.8588 39.2C41.1895 39.519 41.4902 39.925 41.7007 40.389C41.9112 40.8675 42.0014 41.375 42.0615 41.839L47.8196 39.461L46.6469 36.793ZM28.7713 25.831L29.8838 28.4555C29.523 28.325 29.1923 28.151 28.9216 27.977C28.0196 27.4115 27.3581 26.701 26.9221 25.86L25.8096 23.5835C25.5239 23.076 25.1781 22.699 24.697 22.438C24.261 22.1915 23.795 22.061 23.3139 22.061C22.8328 22.061 22.3818 22.177 21.9458 22.38C19.841 23.975 19.3148 26.933 19.3148 26.933L18.8036 29.2095C18.6683 29.9635 18.5932 30.7175 18.5932 31.486V38.678L15 43.3615L17.2551 45L21.4196 39.5625L21.6752 34.85L24.2009 38.243V45H26.9822V36.213L24.2009 32.4285V31.486C24.2009 30.848 24.2009 30.2245 24.3663 29.6155L24.8925 27.8755C25.4638 28.673 26.1554 29.369 26.9822 29.9635C27.6588 30.4565 29.5531 31.3265 31.3421 31.747L34.5444 38.91C34.8752 38.591 35.2961 38.301 35.7923 38.098C36.2733 37.895 36.7995 37.808 37.2806 37.75L31.5376 24.7L28.7713 25.831ZM36.5891 30.674L39.5358 37.344L48 33.8495L45.0683 27.194" fill="#FFC475"/>
</svg>
