<svg width="60" height="60" viewBox="0 0 60 60" fill="none" xmlns="http://www.w3.org/2000/svg">
<rect width="60" height="60" rx="30" transform="matrix(-1 0 0 1 60 0)" fill="#1C212D"/>
<path d="M20.3333 19H44.3333V35H20.3333V19ZM32.3333 23C33.3942 23 34.4116 23.4214 35.1618 24.1716C35.9119 24.9217 36.3333 25.9391 36.3333 27C36.3333 28.0609 35.9119 29.0783 35.1618 29.8284C34.4116 30.5786 33.3942 31 32.3333 31C31.2725 31 30.2551 30.5786 29.5049 29.8284C28.7548 29.0783 28.3333 28.0609 28.3333 27C28.3333 25.9391 28.7548 24.9217 29.5049 24.1716C30.2551 23.4214 31.2725 23 32.3333 23ZM25.6667 21.6667C25.6667 22.3739 25.3857 23.0522 24.8856 23.5523C24.3855 24.0524 23.7072 24.3333 23 24.3333V29.6667C23.7072 29.6667 24.3855 29.9476 24.8856 30.4477C25.3857 30.9478 25.6667 31.6261 25.6667 32.3333H39C39 31.6261 39.281 30.9478 39.781 30.4477C40.2811 29.9476 40.9594 29.6667 41.6667 29.6667V24.3333C40.9594 24.3333 40.2811 24.0524 39.781 23.5523C39.281 23.0522 39 22.3739 39 21.6667H25.6667ZM15 24.3333H17.6667V37.6667H39V40.3333H15V24.3333Z" fill="#FFC475"/>
</svg>
