<svg width="60" height="60" viewBox="0 0 60 60" fill="none" xmlns="http://www.w3.org/2000/svg">
<rect width="60" height="60" rx="30" transform="matrix(-1 0 0 1 60 0)" fill="#1C212D"/>
<path d="M41 40.3333H19.6667C18.9594 40.3333 18.2811 40.0524 17.781 39.5523C17.281 39.0522 17 38.3739 17 37.6667V21.6667C17 20.9594 17.281 20.2811 17.781 19.781C18.2811 19.281 18.9594 19 19.6667 19H41C41.7072 19 42.3855 19.281 42.8856 19.781C43.3857 20.2811 43.6667 20.9594 43.6667 21.6667V37.6667C43.6667 38.3739 43.3857 39.0522 42.8856 39.5523C42.3855 40.0524 41.7072 40.3333 41 40.3333ZM21 31V33.6667H35.6667V31H21ZM21 25.6667V28.3333H39.6667V25.6667H21Z" fill="#FFC475"/>
</svg>
