<svg width="60" height="60" viewBox="0 0 60 60" fill="none" xmlns="http://www.w3.org/2000/svg">
<rect width="60" height="60" rx="30" transform="matrix(-1 0 0 1 60 0)" fill="#1C212D"/>
<path d="M16.8211 33.0625L15.7789 31H23.0737L22.24 28.9375H15.4316L14.3895 26.875H25.2274L24.3937 24.8125H14.1949L13 22.75H18.2105C18.2105 22.0207 18.5033 21.3212 19.0245 20.8055C19.5456 20.2897 20.2525 20 20.9895 20H37.6632V25.5H41.8316L46 31V37.875H43.2211C43.2211 38.969 42.7819 40.0182 42.0002 40.7918C41.2184 41.5654 40.1582 42 39.0526 42C37.9471 42 36.8868 41.5654 36.1051 40.7918C35.3234 40.0182 34.8842 38.969 34.8842 37.875H29.3263C29.3263 38.969 28.8871 40.0182 28.1054 40.7918C27.3237 41.5654 26.2634 42 25.1579 42C24.0524 42 22.9921 41.5654 22.2104 40.7918C21.4286 40.0182 20.9895 38.969 20.9895 37.875H18.2105V33.0625H16.8211ZM39.0526 39.9375C39.6054 39.9375 40.1355 39.7202 40.5264 39.3334C40.9173 38.9466 41.1368 38.422 41.1368 37.875C41.1368 37.328 40.9173 36.8034 40.5264 36.4166C40.1355 36.0298 39.6054 35.8125 39.0526 35.8125C38.4999 35.8125 37.9697 36.0298 37.5789 36.4166C37.188 36.8034 36.9684 37.328 36.9684 37.875C36.9684 38.422 37.188 38.9466 37.5789 39.3334C37.9697 39.7202 38.4999 39.9375 39.0526 39.9375ZM41.1368 27.5625H37.6632V31H43.8602L41.1368 27.5625ZM25.1579 39.9375C25.7107 39.9375 26.2408 39.7202 26.6317 39.3334C27.0225 38.9466 27.2421 38.422 27.2421 37.875C27.2421 37.328 27.0225 36.8034 26.6317 36.4166C26.2408 36.0298 25.7107 35.8125 25.1579 35.8125C24.6051 35.8125 24.075 36.0298 23.6841 36.4166C23.2933 36.8034 23.0737 37.328 23.0737 37.875C23.0737 38.422 23.2933 38.9466 23.6841 39.3334C24.075 39.7202 24.6051 39.9375 25.1579 39.9375Z" fill="#FFC475"/>
</svg>
